<mxfile host="app.diagrams.net" modified="2024-07-20T16:05:55.351Z" agent="Mozilla/5.0 (Windows NT 10.0; Win64; x64) AppleWebKit/537.36 (KHTML, like Gecko) Chrome/126.0.0.0 Safari/537.36" etag="rxP3q_4R2LCGY2ZfX0W5" version="24.7.2" type="github">
  <diagram name="Page-1" id="X2_wb8nsPO4MIK10mP-o">
    <mxGraphModel dx="1746" dy="854" grid="0" gridSize="10" guides="1" tooltips="1" connect="1" arrows="1" fold="1" page="1" pageScale="1" pageWidth="1169" pageHeight="827" math="0" shadow="0">
      <root>
        <mxCell id="0" />
        <mxCell id="1" parent="0" />
        <mxCell id="lhgkrugk862irGy0ZhnZ-1" value="&lt;font style=&quot;font-size: 23px;&quot;&gt;Homepage&lt;/font&gt;" style="rounded=0;whiteSpace=wrap;html=1;align=center;" vertex="1" parent="1">
          <mxGeometry x="484" y="31" width="154" height="59" as="geometry" />
        </mxCell>
        <mxCell id="lhgkrugk862irGy0ZhnZ-2" value="&lt;font style=&quot;font-size: 23px;&quot;&gt;Login&lt;/font&gt;&lt;span style=&quot;color: rgba(0, 0, 0, 0); font-family: monospace; font-size: 0px; text-align: start; text-wrap: nowrap;&quot;&gt;%3CmxGraphModel%3E%3Croot%3E%3CmxCell%20id%3D%220%22%2F%3E%3CmxCell%20id%3D%221%22%20parent%3D%220%22%2F%3E%3CmxCell%20id%3D%222%22%20value%3D%22%26lt%3Bfont%20style%3D%26quot%3Bfont-size%3A%2023px%3B%26quot%3B%26gt%3BHomepage%26lt%3B%2Ffont%26gt%3B%22%20style%3D%22rounded%3D0%3BwhiteSpace%3Dwrap%3Bhtml%3D1%3Balign%3Dcenter%3B%22%20vertex%3D%221%22%20parent%3D%221%22%3E%3CmxGeometry%20x%3D%22477%22%20y%3D%22208%22%20width%3D%22154%22%20height%3D%2289%22%20as%3D%22geometry%22%2F%3E%3C%2FmxCell%3E%3C%2Froot%3E%3C%2FmxGraphModel%3E&lt;/span&gt;" style="rounded=0;whiteSpace=wrap;html=1;align=center;fillColor=#d5e8d4;strokeColor=#82b366;" vertex="1" parent="1">
          <mxGeometry x="34" y="37" width="154" height="53" as="geometry" />
        </mxCell>
        <mxCell id="lhgkrugk862irGy0ZhnZ-3" value="&lt;font style=&quot;font-size: 23px;&quot;&gt;Register&lt;/font&gt;" style="rounded=0;whiteSpace=wrap;html=1;align=center;fillColor=#d5e8d4;strokeColor=#82b366;" vertex="1" parent="1">
          <mxGeometry x="247" y="33" width="154" height="57" as="geometry" />
        </mxCell>
        <mxCell id="lhgkrugk862irGy0ZhnZ-16" value="&lt;span style=&quot;font-size: 23px;&quot;&gt;Product Listing - All and categorized&lt;/span&gt;" style="rounded=0;whiteSpace=wrap;html=1;align=center;" vertex="1" parent="1">
          <mxGeometry x="710" y="31" width="179" height="105" as="geometry" />
        </mxCell>
        <mxCell id="lhgkrugk862irGy0ZhnZ-19" value="&lt;font style=&quot;font-size: 23px;&quot;&gt;Product Page&lt;/font&gt;" style="rounded=0;whiteSpace=wrap;html=1;align=center;" vertex="1" parent="1">
          <mxGeometry x="961" y="37" width="154" height="59" as="geometry" />
        </mxCell>
        <mxCell id="lhgkrugk862irGy0ZhnZ-23" value="&lt;span style=&quot;font-size: 23px;&quot;&gt;Checkout&lt;/span&gt;" style="rounded=0;whiteSpace=wrap;html=1;align=center;" vertex="1" parent="1">
          <mxGeometry x="34" y="209" width="154" height="53" as="geometry" />
        </mxCell>
        <mxCell id="lhgkrugk862irGy0ZhnZ-24" value="&lt;span style=&quot;font-size: 23px;&quot;&gt;Orders&lt;/span&gt;" style="rounded=0;whiteSpace=wrap;html=1;align=center;" vertex="1" parent="1">
          <mxGeometry x="247" y="209" width="154" height="67" as="geometry" />
        </mxCell>
        <mxCell id="lhgkrugk862irGy0ZhnZ-25" value="&lt;span style=&quot;font-size: 23px;&quot;&gt;Orders Listing&lt;/span&gt;" style="rounded=0;whiteSpace=wrap;html=1;align=center;" vertex="1" parent="1">
          <mxGeometry x="480" y="209" width="158" height="67" as="geometry" />
        </mxCell>
        <mxCell id="lhgkrugk862irGy0ZhnZ-27" value="&lt;span style=&quot;font-size: 23px;&quot;&gt;Account + Settings&lt;/span&gt;" style="rounded=0;whiteSpace=wrap;html=1;align=center;" vertex="1" parent="1">
          <mxGeometry x="717" y="209" width="158" height="67" as="geometry" />
        </mxCell>
        <mxCell id="lhgkrugk862irGy0ZhnZ-28" value="&lt;span style=&quot;font-size: 23px;&quot;&gt;Admin Products (listing - CRUD modal)&lt;/span&gt;" style="rounded=0;whiteSpace=wrap;html=1;align=center;" vertex="1" parent="1">
          <mxGeometry x="961" y="199" width="158" height="135" as="geometry" />
        </mxCell>
        <mxCell id="lhgkrugk862irGy0ZhnZ-29" value="&lt;span style=&quot;font-size: 23px;&quot;&gt;Admin Products (listing - CRUD modal)&lt;/span&gt;" style="rounded=0;whiteSpace=wrap;html=1;align=center;" vertex="1" parent="1">
          <mxGeometry x="34" y="402" width="158" height="135" as="geometry" />
        </mxCell>
        <mxCell id="lhgkrugk862irGy0ZhnZ-30" value="&lt;span style=&quot;font-size: 23px;&quot;&gt;Admin Analytics - Later Project.&lt;/span&gt;" style="rounded=0;whiteSpace=wrap;html=1;align=center;" vertex="1" parent="1">
          <mxGeometry x="245" y="402" width="158" height="135" as="geometry" />
        </mxCell>
      </root>
    </mxGraphModel>
  </diagram>
</mxfile>
